<svg width="100" height="100" viewBox="0 0 100 100" fill="none" xmlns="http://www.w3.org/2000/svg">
<g clip-path="url(#clip0)">
<path opacity="0.1" d="M72.9596 26.0109C72.9594 26.0109 72.9592 26.0109 72.959 26.0109V8.7846C72.959 7.57225 72.0859 6.58832 71.0058 6.58832H28.9941C27.9141 6.58832 27.041 7.57225 27.041 8.7846V98.3424C27.041 99.1616 27.8105 99.6931 28.4609 99.3197L31.1895 97.7538C31.4687 97.5935 31.7988 97.5935 32.0781 97.7538L35.7812 99.8798C36.0605 100.04 36.3906 100.04 36.6699 99.8798L40.375 97.7538C40.6523 97.5935 40.9844 97.5935 41.2617 97.7538L44.9668 99.8798C45.2461 100.04 45.5762 100.04 45.8535 99.8798L49.5586 97.7538C49.8379 97.5935 50.168 97.5935 50.4473 97.7538L54.1504 99.8798C54.4297 100.04 54.7598 100.04 55.039 99.8798L58.7422 97.7538C59.0215 97.5935 59.3515 97.5935 59.6289 97.7538L63.334 99.8798C63.6113 100.04 63.9414 100.04 64.2207 99.8798L67.9238 97.7538C68.2031 97.5935 68.5332 97.5935 68.8125 97.7538L71.539 99.3197C72.1894 99.6931 72.959 99.1616 72.959 98.3402V49.4097H72.9596C78.7056 49.4097 83.3636 44.1716 83.3636 37.7103C83.3636 31.2488 78.7056 26.0109 72.9596 26.0109Z" fill="#19416F"/>
<path d="M92.0851 23.055C79.3084 12.0093 66.9158 21.0114 53.0929 17.8285C39.1703 14.6226 33.6232 3.94807 17.7656 8.87541C3.71836 13.2401 -4.80508 30.7396 2.91719 45.3903C5.11777 49.5652 8.8666 52.7149 10.3986 57.3861C12.8699 64.9218 9.1082 70.7072 9.84199 78.1128C12.8912 108.883 54.6806 96.9644 70.0574 87.391C94.1726 72.3773 110.487 38.9638 92.0851 23.055Z" fill="url(#paint0_linear)"/>
<path d="M72.9589 3.29406V92.8496C72.9589 93.671 72.1893 94.2025 71.5389 93.8292L68.8124 92.2632C68.5331 92.1029 68.203 92.1029 67.9237 92.2632L64.2206 94.3892C63.9413 94.5495 63.6112 94.5495 63.3339 94.3892L59.6288 92.2632C59.3514 92.1029 59.0214 92.1029 58.7421 92.2632L55.0389 94.3892C54.7596 94.5495 54.4296 94.5495 54.1503 94.3892L50.4471 92.2632C50.1678 92.1029 49.8378 92.1029 49.5585 92.2632L45.8534 94.3892C45.576 94.5495 45.246 94.5495 44.9667 94.3892L41.2616 92.2632C40.9842 92.1029 40.6522 92.1029 40.3749 92.2632L36.6698 94.3892C36.3905 94.5495 36.0604 94.5495 35.7811 94.3892L32.078 92.2632C31.7987 92.1029 31.4686 92.1029 31.1893 92.2632L28.4608 93.8292C27.8104 94.2025 27.0409 93.671 27.0409 92.8518V3.29406C27.0409 2.08171 27.9139 1.09778 28.994 1.09778H71.0057C72.0858 1.09778 72.9589 2.08171 72.9589 3.29406Z" fill="white"/>
<path d="M54.5943 95.6178C54.2894 95.6178 53.9845 95.5381 53.7066 95.3786L50.0025 93.2526L46.2984 95.3786C45.7421 95.6975 45.0783 95.6973 44.5228 95.3786L40.8185 93.2526L37.1142 95.3786C36.5582 95.6975 35.8945 95.6975 35.3386 95.3786L31.6336 93.2526L28.905 94.8184C28.2947 95.1687 27.5816 95.1375 26.9972 94.7351C26.4129 94.3328 26.064 93.6326 26.064 92.8621V3.30572C26.064 1.48917 27.3783 0.0112915 28.9937 0.0112915H38.5587C39.098 0.0112915 39.5353 0.503039 39.5353 1.10943C39.5353 1.71583 39.098 2.20757 38.5587 2.20757H28.9937C28.4552 2.20757 28.0171 2.7002 28.0171 3.30572V92.8619L30.7455 91.2962C31.3015 90.9773 31.9654 90.9773 32.5211 91.2962L36.2261 93.4222L39.9304 91.2962C40.4863 90.9771 41.1501 90.9768 41.7064 91.2962L45.4103 93.422L49.1144 91.296C49.6703 90.9768 50.3341 90.9766 50.8904 91.296L54.5943 93.4217L58.2978 91.296C58.8542 90.9768 59.5179 90.9768 60.0738 91.296L63.7773 93.422L67.48 91.2962C68.0363 90.9771 68.6999 90.9771 69.2558 91.296L71.9829 92.8613V50.4299C71.9829 49.8235 72.4202 49.3318 72.9595 49.3318C73.4988 49.3318 73.9361 49.8235 73.9361 50.4299V92.8617C73.9361 93.6322 73.5872 94.3323 73.0028 94.7347C72.4187 95.137 71.7052 95.1682 71.095 94.8177L68.3681 93.2524L64.6652 95.3782C64.1093 95.6975 63.4452 95.6978 62.889 95.3782L59.1857 93.2524L55.4824 95.3782C55.2044 95.5381 54.8994 95.6178 54.5943 95.6178Z" fill="#19416F"/>
<path d="M50.9766 41.6331H34.0782C33.5387 41.6331 33.1016 41.1413 33.1016 40.535C33.1016 39.9286 33.5387 39.4368 34.0782 39.4368H50.9766C51.5161 39.4368 51.9532 39.9286 51.9532 40.535C51.9532 41.1416 51.5161 41.6331 50.9766 41.6331Z" fill="#19416F"/>
<path d="M36.3282 37.2337H34.0782C33.5387 37.2337 33.1016 36.7419 33.1016 36.1355C33.1016 35.5291 33.5387 35.0374 34.0782 35.0374H36.3282C36.8676 35.0374 37.3047 35.5291 37.3047 36.1355C37.3047 36.7419 36.8676 37.2337 36.3282 37.2337Z" fill="#19416F"/>
<path d="M54.8829 51.6059H34.0782C33.5387 51.6059 33.1016 51.1142 33.1016 50.5078C33.1016 49.9014 33.5387 49.4097 34.0782 49.4097H54.8829C55.4223 49.4097 55.8594 49.9014 55.8594 50.5078C55.8594 51.1142 55.4223 51.6059 54.8829 51.6059Z" fill="#19416F"/>
<path d="M36.3282 47.2063H34.0782C33.5387 47.2063 33.1016 46.7146 33.1016 46.1082C33.1016 45.5018 33.5387 45.0101 34.0782 45.0101H36.3282C36.8676 45.0101 37.3047 45.5018 37.3047 46.1082C37.3047 46.7146 36.8676 47.2063 36.3282 47.2063Z" fill="#19416F"/>
<path d="M52.9297 61.5786H34.0782C33.5387 61.5786 33.1016 61.0868 33.1016 60.4804C33.1016 59.8741 33.5387 59.3823 34.0782 59.3823H52.9297C53.4692 59.3823 53.9063 59.8741 53.9063 60.4804C53.9063 61.0868 53.4692 61.5786 52.9297 61.5786Z" fill="#19416F"/>
<path d="M36.3282 57.179H34.0782C33.5387 57.179 33.1016 56.6873 33.1016 56.0809C33.1016 55.4745 33.5387 54.9827 34.0782 54.9827H36.3282C36.8676 54.9827 37.3047 55.4745 37.3047 56.0809C37.3047 56.6875 36.8676 57.179 36.3282 57.179Z" fill="#19416F"/>
<path d="M45.1172 71.5514H34.0782C33.5387 71.5514 33.1016 71.0597 33.1016 70.4533C33.1016 69.8469 33.5387 69.3551 34.0782 69.3551H45.1172C45.6567 69.3551 46.0938 69.8469 46.0938 70.4533C46.0938 71.0597 45.6567 71.5514 45.1172 71.5514Z" fill="#19416F"/>
<path d="M54.0547 71.5514H49.8516C49.3122 71.5514 48.8751 71.0597 48.8751 70.4533C48.8751 69.8469 49.3122 69.3551 49.8516 69.3551H54.0547C54.5942 69.3551 55.0313 69.8469 55.0313 70.4533C55.0313 71.0597 54.5942 71.5514 54.0547 71.5514Z" fill="#19416F"/>
<path d="M36.3282 67.1518H34.0782C33.5387 67.1518 33.1016 66.6601 33.1016 66.0537C33.1016 65.4473 33.5387 64.9556 34.0782 64.9556H36.3282C36.8676 64.9556 37.3047 65.4473 37.3047 66.0537C37.3047 66.6601 36.8676 67.1518 36.3282 67.1518Z" fill="#19416F"/>
<path d="M65.3547 41.6331H62.1282C61.5887 41.6331 61.1516 41.1414 61.1516 40.535C61.1516 39.9286 61.5887 39.4368 62.1282 39.4368H65.3547C65.8942 39.4368 66.3313 39.9286 66.3313 40.535C66.3313 41.1416 65.894 41.6331 65.3547 41.6331Z" fill="#19416F"/>
<path d="M65.3547 51.6059H62.1282C61.5887 51.6059 61.1516 51.1142 61.1516 50.5078C61.1516 49.9014 61.5887 49.4096 62.1282 49.4096H65.3547C65.8942 49.4096 66.3313 49.9014 66.3313 50.5078C66.3313 51.1142 65.894 51.6059 65.3547 51.6059Z" fill="#19416F"/>
<path d="M65.3547 61.5786H62.1282C61.5887 61.5786 61.1516 61.0868 61.1516 60.4805C61.1516 59.8741 61.5887 59.3823 62.1282 59.3823H65.3547C65.8942 59.3823 66.3313 59.8741 66.3313 60.4805C66.3313 61.0868 65.894 61.5786 65.3547 61.5786Z" fill="#19416F"/>
<path d="M65.3547 71.5514H62.1282C61.5887 71.5514 61.1516 71.0597 61.1516 70.4533C61.1516 69.8469 61.5887 69.3551 62.1282 69.3551H65.3547C65.8942 69.3551 66.3313 69.8469 66.3313 70.4533C66.3313 71.0597 65.894 71.5514 65.3547 71.5514Z" fill="#19416F"/>
<path d="M65.0315 67.1644C64.4922 67.1644 64.0549 66.6727 64.0549 66.0663V66.041C64.0549 65.4346 64.4922 64.9429 65.0315 64.9429C65.5708 64.9429 66.0081 65.4346 66.0081 66.041V66.0663C66.0081 66.6729 65.571 67.1644 65.0315 67.1644Z" fill="#19416F"/>
<path d="M65.3547 84.2621H60.6398C60.1004 84.2621 59.6633 83.7703 59.6633 83.1639C59.6633 82.5575 60.1004 82.0658 60.6398 82.0658H65.3547C65.8941 82.0658 66.3313 82.5575 66.3313 83.1639C66.3313 83.7703 65.8939 84.2621 65.3547 84.2621Z" fill="#19416F"/>
<path d="M40.7466 84.2621H34.0786C33.5392 84.2621 33.1021 83.7703 33.1021 83.1639C33.1021 82.5575 33.5392 82.0658 34.0786 82.0658H40.7466C41.286 82.0658 41.723 82.5575 41.723 83.1639C41.723 83.7703 41.2858 84.2621 40.7466 84.2621Z" fill="#19416F"/>
<path d="M65.0315 57.1917C64.4922 57.1917 64.0549 56.7 64.0549 56.0936V56.0683C64.0549 55.4619 64.4922 54.9702 65.0315 54.9702C65.5708 54.9702 66.0081 55.4619 66.0081 56.0683V56.0936C66.0081 56.7 65.571 57.1917 65.0315 57.1917Z" fill="#19416F"/>
<path d="M65.0315 47.2191C64.4922 47.2191 64.0549 46.7273 64.0549 46.1209V46.0957C64.0549 45.4893 64.4922 44.9975 65.0315 44.9975C65.5708 44.9975 66.0081 45.4893 66.0081 46.0957V46.1209C66.0081 46.7273 65.571 47.2191 65.0315 47.2191Z" fill="#19416F"/>
<path d="M65.0315 37.2462C64.4922 37.2462 64.0549 36.7545 64.0549 36.1481V36.1228C64.0549 35.5164 64.4922 35.0247 65.0315 35.0247C65.5708 35.0247 66.0081 35.5164 66.0081 36.1228V36.1481C66.0081 36.7545 65.571 37.2462 65.0315 37.2462Z" fill="#19416F"/>
<path d="M72.9596 43.919C78.7056 43.919 83.3637 38.6811 83.3637 32.2197C83.3637 25.7583 78.7056 20.5203 72.9596 20.5203C67.2136 20.5203 62.5555 25.7583 62.5555 32.2197C62.5555 38.6811 67.2136 43.919 72.9596 43.919Z" fill="black"/>
<path d="M73.9361 19.4722V3.29442C73.9361 1.47788 72.6219 0 71.0065 0H44.2721C43.7328 0 43.2955 0.491747 43.2955 1.09814C43.2955 1.70453 43.7328 2.19628 44.2721 2.19628H71.0065C71.5449 2.19628 71.983 2.68891 71.983 3.29442V19.4722C66.1635 20.0316 61.5789 25.5333 61.5789 32.2197C61.5789 39.2763 66.6844 45.0172 72.9598 45.0172C79.2352 45.0172 84.3404 39.2763 84.3404 32.2197C84.3402 25.5333 79.7557 20.0314 73.9361 19.4722ZM72.9596 42.8209C67.7611 42.8209 63.5318 38.0653 63.5318 32.2197C63.5318 26.374 67.7611 21.6182 72.9596 21.6182C78.158 21.6182 82.3871 26.374 82.3871 32.2197C82.3871 38.0653 78.158 42.8209 72.9596 42.8209Z" fill="#19416F"/>
<path d="M74.2322 31.1215H73.9361V28.8857H75.7826C76.3219 28.8857 76.7592 28.394 76.7592 27.7876C76.7592 27.1812 76.3219 26.6894 75.7826 26.6894H73.9361V26.1373C73.9361 25.5309 73.4988 25.0392 72.9596 25.0392C72.4203 25.0392 71.983 25.5309 71.983 26.1373V26.6894H71.6869C70.0617 26.6894 68.7396 28.1761 68.7396 30.0036C68.7396 31.8312 70.0617 33.3178 71.6869 33.3178H71.983V35.5536H70.1367C69.5974 35.5536 69.1601 36.0454 69.1601 36.6518C69.1601 37.2582 69.5974 37.7499 70.1367 37.7499H71.983V38.3021C71.983 38.9085 72.4203 39.4002 72.9596 39.4002C73.4988 39.4002 73.9361 38.9085 73.9361 38.3021V37.7499H74.2322C75.8572 37.7499 77.1793 36.2633 77.1793 34.4357C77.1793 32.6082 75.8572 31.1215 74.2322 31.1215ZM71.6869 31.1215C71.1387 31.1215 70.6928 30.6201 70.6928 30.0036C70.6928 29.3871 71.1387 28.8857 71.6869 28.8857H71.983V31.1215H71.6869ZM74.2322 35.5536H73.9361V33.3178H74.2322C74.7803 33.3178 75.2262 33.8192 75.2262 34.4357C75.2264 35.052 74.7803 35.5536 74.2322 35.5536Z" fill="#19416F"/>
<path d="M54.0546 28.6345H45.9453C45.4059 28.6345 44.9688 28.1428 44.9688 27.5364C44.9688 26.93 45.4059 26.4382 45.9453 26.4382H54.0546C54.594 26.4382 55.0312 26.93 55.0312 27.5364C55.0312 28.1428 54.594 28.6345 54.0546 28.6345Z" fill="#19416F"/>
<path d="M59.4258 20.5203H40.5742C40.0348 20.5203 39.5977 20.0286 39.5977 19.4222C39.5977 18.8158 40.0348 18.324 40.5742 18.324H59.4258C59.9652 18.324 60.4023 18.8158 60.4023 19.4222C60.4023 20.0286 59.9652 20.5203 59.4258 20.5203Z" fill="#19416F"/>
<path d="M64.3086 15.7003H35.6914C35.152 15.7003 34.7148 15.2086 34.7148 14.6022C34.7148 13.9958 35.152 13.504 35.6914 13.504H64.3086C64.848 13.504 65.2851 13.9958 65.2851 14.6022C65.2851 15.2086 64.848 15.7003 64.3086 15.7003Z" fill="#19416F"/>
<path d="M36.3282 10.8807H34.0782C33.5387 10.8807 33.1016 10.3889 33.1016 9.78253C33.1016 9.17613 33.5387 8.68439 34.0782 8.68439H36.3282C36.8676 8.68439 37.3047 9.17613 37.3047 9.78253C37.3047 10.3889 36.8676 10.8807 36.3282 10.8807Z" fill="#19416F"/>
<path d="M80.3086 11.8675C79.5834 11.8675 78.8582 11.5569 78.306 10.9362C77.2019 9.69465 77.2019 7.67428 78.306 6.43249C79.4101 5.19071 81.207 5.19071 82.3111 6.43249C83.4152 7.67428 83.4152 9.69444 82.3111 10.9362C81.7592 11.5569 81.034 11.8675 80.3086 11.8675ZM80.3088 7.69646C80.0836 7.69646 79.8586 7.79266 79.6873 7.98549C79.3447 8.37072 79.3447 8.99778 79.6873 9.38322C80.0299 9.76846 80.5875 9.76867 80.9303 9.38322C81.2728 8.99799 81.2728 8.37094 80.9303 7.98549C80.7588 7.79266 80.5338 7.69646 80.3088 7.69646Z" fill="black"/>
<path d="M85.2191 22.6052C84.4939 22.6054 83.7687 22.2948 83.2166 21.674C82.6816 21.0724 82.3871 20.2727 82.3871 19.4221C82.3871 18.5715 82.6816 17.7719 83.2166 17.1703C84.3205 15.9288 86.1172 15.9286 87.2215 17.1703C87.7564 17.7719 88.0509 18.5715 88.0509 19.4221C88.0509 20.273 87.7564 21.0726 87.2213 21.674C86.6697 22.2946 85.9443 22.6052 85.2191 22.6052ZM85.2191 18.4343C84.9941 18.4343 84.7689 18.5305 84.5976 18.7233C84.4314 18.91 84.3402 19.1581 84.3402 19.4221C84.3402 19.6861 84.4316 19.9343 84.5976 20.121C84.9404 20.5064 85.498 20.5064 85.8406 20.121C86.0068 19.9343 86.098 19.6861 86.098 19.4221C86.098 19.1581 86.0066 18.9102 85.8406 18.7233C85.6693 18.5305 85.4443 18.4343 85.2191 18.4343Z" fill="black"/>
<path d="M20.5818 45.7743C19.8566 45.7743 19.1312 45.4638 18.5793 44.8431C17.4752 43.6013 17.4752 41.5809 18.5793 40.3394C19.6834 39.0981 21.4803 39.0978 22.5844 40.3394C23.6885 41.5812 23.6885 43.6013 22.5844 44.8431C22.0324 45.4638 21.307 45.7743 20.5818 45.7743ZM20.5818 41.6034C20.3568 41.6034 20.1316 41.6995 19.9603 41.8924C19.6176 42.2776 19.6176 42.9046 19.9603 43.2901C20.3029 43.6755 20.8607 43.6753 21.2033 43.2901C21.5461 42.9049 21.5461 42.2778 21.2033 41.8924C21.032 41.6995 20.807 41.6034 20.5818 41.6034Z" fill="black"/>
<path d="M19.3229 55.6446C19.0729 55.6446 18.8231 55.5374 18.6323 55.3231L17.4674 54.0132L16.3026 55.3231C15.9211 55.7518 15.303 55.7518 14.9215 55.3231C14.5401 54.8941 14.5401 54.1988 14.9215 53.7701L16.777 51.6836C17.1584 51.2549 17.7766 51.2549 18.158 51.6836L20.0135 53.7701C20.395 54.199 20.395 54.8944 20.0135 55.3231C19.8227 55.5372 19.5729 55.6446 19.3229 55.6446Z" fill="black"/>
<path d="M83.3637 87.4468C83.1137 87.4468 82.8639 87.3396 82.673 87.1252L81.5082 85.8154L80.3433 87.1252C79.9619 87.554 79.3437 87.554 78.9623 87.1252C78.5808 86.6963 78.5808 86.001 78.9623 85.5722L80.8178 83.4858C81.1992 83.0571 81.8174 83.0571 82.1988 83.4858L84.0543 85.5722C84.4357 86.0012 84.4357 86.6965 84.0543 87.1252C83.8635 87.3394 83.6137 87.4468 83.3637 87.4468Z" fill="black"/>
</g>
<defs>
<linearGradient id="paint0_linear" x1="-1.76035" y1="27.3775" x2="94.8089" y2="68.6485" gradientUnits="userSpaceOnUse">
<stop stop-color="#19416F"/>
<stop offset="1" stop-color="#E5E5E5"/>
</linearGradient>
<clipPath id="clip0">
<rect width="100" height="100" fill="white"/>
</clipPath>
</defs>
</svg>
