<svg width="100" height="100" viewBox="0 0 100 100" fill="none" xmlns="http://www.w3.org/2000/svg">
<path d="M88.4512 81.7353V66.315C88.4512 63.0018 85.7653 60.3157 82.452 60.3157H80.8837V4.01943C80.8837 3.51583 80.6309 3.0459 80.211 2.76828L76.403 0.251295C75.4058 -0.407692 74.0764 0.307177 74.0764 1.50243V19.5828L72.9416 16.5217C71.4154 12.4047 67.4885 9.67237 63.0976 9.67237H36.8793C32.4626 9.67237 28.5184 12.4364 27.011 16.5879L25.9236 19.5828V1.50243C25.9236 0.307341 24.594 -0.407692 23.5968 0.251295L19.7886 2.76812C19.3685 3.04574 19.1158 3.51567 19.1158 4.01926V60.3157H17.5476C14.2344 60.3157 11.5484 63.0017 11.5484 66.315V81.7353H8.99259C8.16433 81.7353 7.49292 82.4067 7.49292 83.2352V91.5265C7.49292 92.3548 8.16433 93.0263 8.99259 93.0263H15.4628V97.0005C15.4628 98.6572 16.8058 100 18.4625 100H26.411C28.0677 100 29.4107 98.6571 29.4107 97.0005V93.0263H70.5894V97.0005C70.5894 98.6572 71.9326 100 73.5889 100H81.5376C83.1943 100 84.5371 98.6571 84.5371 97.0005V93.0263H91.0074C91.8358 93.0263 92.5073 92.3548 92.5073 91.5265V83.2353C92.5073 82.4069 91.8358 81.7355 91.0074 81.7355L88.4512 81.7353ZM27.9107 27.9373H72.0891V42.715H27.9107V27.9373ZM26.8834 77.5383H21.7597C20.1942 77.5383 18.9251 76.269 18.9251 74.7035V74.6319C18.9251 73.0664 20.1942 71.7972 21.7597 71.7972H26.8832C28.4488 71.7972 29.7179 73.0664 29.7179 74.6319V74.7035C29.718 76.269 28.4489 77.5383 26.8834 77.5383ZM60.1957 78.374H39.8042C38.1475 78.374 36.8045 77.0309 36.8045 75.3745V56.3688C36.8045 54.7123 38.1475 53.3693 39.8042 53.3693H60.1957C61.8522 53.3693 63.1952 54.7124 63.1952 56.3688V75.3744C63.1953 77.0309 61.8522 78.374 60.1957 78.374ZM78.2399 77.5383H73.1164C71.551 77.5383 70.2818 76.269 70.2818 74.7035V74.6319C70.2818 73.0664 71.551 71.7972 73.1164 71.7972H78.2399C79.8055 71.7972 81.0747 73.0664 81.0747 74.6319V74.7035C81.0747 76.269 79.8055 77.5383 78.2399 77.5383ZM59.7396 64.3468H40.2122C39.3921 64.3468 38.7274 63.682 38.7274 62.8618V62.8317C38.7274 62.0116 39.3921 61.3471 40.2122 61.3471H59.7396C60.5597 61.3471 61.2244 62.0116 61.2244 62.8317V62.8618C61.2244 63.682 60.5597 64.3468 59.7396 64.3468ZM59.7396 58.3474H40.2122C39.3921 58.3474 38.7274 57.6827 38.7274 56.8626V56.8325C38.7274 56.0126 39.3921 55.3479 40.2122 55.3479H59.7396C60.5597 55.3479 61.2244 56.0126 61.2244 56.8325V56.8626C61.2244 57.6827 60.5597 58.3474 59.7396 58.3474ZM59.7396 76.3453H40.2122C39.3921 76.3453 38.7274 75.6806 38.7274 74.8605V74.8304C38.7274 74.0103 39.3921 73.3456 40.2122 73.3456H59.7396C60.5597 73.3456 61.2244 74.0103 61.2244 74.8304V74.8605C61.2244 75.6806 60.5597 76.3453 59.7396 76.3453ZM59.7396 70.3459H40.2122C39.3921 70.3459 38.7274 69.6812 38.7274 68.8613V68.8312C38.7274 68.0111 39.3921 67.3464 40.2122 67.3464H59.7396C60.5597 67.3464 61.2244 68.0111 61.2244 68.8312V68.8613C61.2244 69.6812 60.5597 70.3459 59.7396 70.3459Z" fill="#19416F"/>
</svg>
