<svg width="510" height="134" viewBox="0 0 510 134" fill="none" xmlns="http://www.w3.org/2000/svg">
<path d="M182.512 102V71.9219C182.512 68.1784 181.991 65.3789 180.949 63.5234C179.94 61.6354 178.329 60.6914 176.115 60.6914C173.186 60.6914 171.037 61.9447 169.67 64.4512C168.303 66.9577 167.619 70.8802 167.619 76.2188V102H148.479V71.9219C148.479 68.1784 147.99 65.3789 147.014 63.5234C146.037 61.6354 144.458 60.6914 142.277 60.6914C139.283 60.6914 137.102 62.026 135.734 64.6953C134.367 67.3646 133.684 71.7266 133.684 77.7812V102H114.592V46.6777H128.996L131.389 53.5137H132.512C133.977 50.9746 136.092 49.0378 138.859 47.7031C141.659 46.3685 144.833 45.7012 148.381 45.7012C156.356 45.7012 161.955 48.1263 165.178 52.9766H166.691C168.254 50.6979 170.419 48.9238 173.186 47.6543C175.985 46.3522 179.061 45.7012 182.414 45.7012C188.957 45.7012 193.791 47.3776 196.916 50.7305C200.041 54.0833 201.604 59.1777 201.604 66.0137V102H182.512ZM267.424 74.2168C267.424 83.2663 264.982 90.3301 260.1 95.4082C255.249 100.454 248.446 102.977 239.689 102.977C231.291 102.977 224.602 100.389 219.621 95.2129C214.673 90.0371 212.199 83.0384 212.199 74.2168C212.199 65.1999 214.624 58.2012 219.475 53.2207C224.357 48.2077 231.193 45.7012 239.982 45.7012C245.419 45.7012 250.22 46.8568 254.387 49.168C258.553 51.4792 261.76 54.7995 264.006 59.1289C266.285 63.4258 267.424 68.4551 267.424 74.2168ZM231.584 74.2168C231.584 78.9694 232.219 82.599 233.488 85.1055C234.758 87.5794 236.89 88.8164 239.885 88.8164C242.847 88.8164 244.93 87.5794 246.135 85.1055C247.372 82.599 247.99 78.9694 247.99 74.2168C247.99 69.4967 247.372 65.9323 246.135 63.5234C244.898 61.1146 242.782 59.9102 239.787 59.9102C236.857 59.9102 234.758 61.1146 233.488 63.5234C232.219 65.8997 231.584 69.4642 231.584 74.2168ZM305.461 87.8887C308.033 87.8887 311.109 87.2539 314.689 85.9844V99.9004C312.118 101.007 309.66 101.788 307.316 102.244C305.005 102.732 302.287 102.977 299.162 102.977C292.749 102.977 288.127 101.414 285.295 98.2891C282.463 95.1315 281.047 90.2975 281.047 83.7871V60.9844H274.357V53.2207L282.854 47.2148L287.785 35.5938H300.285V46.6777H313.859V60.9844H300.285V82.5176C300.285 86.0983 302.01 87.8887 305.461 87.8887ZM377.189 74.2168C377.189 83.2663 374.748 90.3301 369.865 95.4082C365.015 100.454 358.212 102.977 349.455 102.977C341.057 102.977 334.367 100.389 329.387 95.2129C324.439 90.0371 321.965 83.0384 321.965 74.2168C321.965 65.1999 324.39 58.2012 329.24 53.2207C334.123 48.2077 340.959 45.7012 349.748 45.7012C355.184 45.7012 359.986 46.8568 364.152 49.168C368.319 51.4792 371.525 54.7995 373.771 59.1289C376.05 63.4258 377.189 68.4551 377.189 74.2168ZM341.35 74.2168C341.35 78.9694 341.984 82.599 343.254 85.1055C344.523 87.5794 346.656 88.8164 349.65 88.8164C352.613 88.8164 354.696 87.5794 355.9 85.1055C357.137 82.599 357.756 78.9694 357.756 74.2168C357.756 69.4967 357.137 65.9323 355.9 63.5234C354.663 61.1146 352.548 59.9102 349.553 59.9102C346.623 59.9102 344.523 61.1146 343.254 63.5234C341.984 65.8997 341.35 69.4642 341.35 74.2168ZM421.525 45.7012C423.186 45.7012 424.764 45.8314 426.262 46.0918L427.336 46.2871L425.627 64.3047C424.064 63.9141 421.9 63.7188 419.133 63.7188C414.966 63.7188 411.939 64.679 410.051 66.5996C408.163 68.4876 407.219 71.222 407.219 74.8027V102H388.127V46.6777H402.336L405.314 55.5156H406.242C407.837 52.5859 410.051 50.2259 412.883 48.4355C415.747 46.6126 418.628 45.7012 421.525 45.7012ZM477.824 85.0078C477.824 90.9323 475.806 95.4082 471.77 98.4355C467.733 101.463 461.939 102.977 454.387 102.977C450.285 102.977 446.721 102.749 443.693 102.293C440.666 101.87 437.574 101.072 434.416 99.9004V84.6172C437.378 85.9193 440.617 86.9935 444.133 87.8398C447.681 88.6862 450.839 89.1094 453.605 89.1094C457.74 89.1094 459.807 88.1654 459.807 86.2773C459.807 85.3008 459.221 84.4382 458.049 83.6895C456.91 82.9082 453.557 81.4108 447.99 79.1973C442.912 77.1139 439.364 74.7539 437.346 72.1172C435.327 69.4479 434.318 66.0788 434.318 62.0098C434.318 56.8665 436.304 52.8626 440.275 49.998C444.247 47.1335 449.862 45.7012 457.121 45.7012C460.767 45.7012 464.185 46.1081 467.375 46.9219C470.598 47.7031 473.934 48.8587 477.385 50.3887L472.209 62.6934C469.67 61.554 466.984 60.5938 464.152 59.8125C461.32 58.9987 459.009 58.5918 457.219 58.5918C454.094 58.5918 452.531 59.3568 452.531 60.8867C452.531 61.8307 453.068 62.6445 454.143 63.3281C455.249 63.9792 458.407 65.3301 463.615 67.3809C467.489 68.9759 470.37 70.5384 472.258 72.0684C474.178 73.5983 475.578 75.4049 476.457 77.4883C477.368 79.5391 477.824 82.0456 477.824 85.0078Z" fill="white"/>
<ellipse cx="53.7975" cy="62" rx="53.7975" ry="50" fill="white"/>
<path d="M76.3876 90.492C75.0091 90.5007 73.7985 90.1153 72.756 89.3357C71.7249 88.5561 70.9189 87.4047 70.3381 85.8817C69.7687 84.3586 69.4766 82.5773 69.4617 80.538C69.4387 77.3936 70.053 74.9287 71.3046 73.1434C72.5563 71.3581 74.2872 70.4585 76.4974 70.4446C77.5798 70.4377 78.527 70.6482 79.339 71.076C80.1625 71.5038 80.9141 72.2282 81.5938 73.2493L81.7305 73.2485C81.5029 71.7346 81.3836 70.22 81.3725 68.7048L81.3347 63.5267L88.068 63.4842L88.2623 90.0752L83.2209 90.1071L81.7675 87.6724L81.5112 87.674C80.3741 89.5383 78.6662 90.4776 76.3876 90.492ZM79.0833 85.1941C80.1543 85.1874 80.9038 84.8465 81.3318 84.1716C81.7712 83.4966 82.0029 82.4584 82.0268 81.0568L82.0229 80.5271C82.0104 78.8181 81.7566 77.6063 81.2615 76.8917C80.7663 76.1656 79.9946 75.8059 78.9464 75.8125C78.0691 75.818 77.3886 76.2382 76.9048 77.073C76.4323 77.8963 76.2016 79.0713 76.2128 80.5979C76.2237 82.1018 76.4771 83.2452 76.9727 84.0282C77.4684 84.8113 78.1719 85.1999 79.0833 85.1941Z" fill="black"/>
<path d="M23.4907 57.3418C20.2664 57.3418 17.7599 56.4873 15.9712 54.7783C14.1938 53.0579 13.3052 50.6141 13.3052 47.4468C13.3052 44.1769 14.1312 41.6704 15.7832 39.9272C17.4352 38.1727 19.7936 37.2954 22.8584 37.2954C25.7751 37.2954 28.0252 38.0588 29.6089 39.5854C31.2039 41.1007 32.0015 43.2882 32.0015 46.1479V49.1216H20.0557C20.1012 50.2039 20.4943 51.0527 21.2349 51.668C21.9868 52.2832 23.0065 52.5908 24.2939 52.5908C25.4674 52.5908 26.5441 52.4826 27.5239 52.2661C28.5151 52.0382 29.5861 51.6566 30.7368 51.1211V55.9233C29.6886 56.4588 28.6063 56.8291 27.4897 57.0342C26.3732 57.2393 25.0402 57.3418 23.4907 57.3418ZM23.0977 41.8413C22.3115 41.8413 21.6507 42.092 21.1152 42.5933C20.5911 43.0832 20.2835 43.8579 20.1924 44.9175H25.9346C25.9118 43.9832 25.644 43.237 25.1313 42.6787C24.63 42.1204 23.9521 41.8413 23.0977 41.8413Z" fill="black"/>
<path d="M46.2188 65.1221L40.3057 55.6372H47.8936L50.8331 61.0718L53.8409 55.6372H61.4459L55.379 65.1221L61.6851 75H54.0972L50.8331 69.1211L47.586 75H39.981L46.2188 65.1221Z" fill="black"/>
</svg>
