<svg width="474" height="134" viewBox="0 0 474 134" fill="none" xmlns="http://www.w3.org/2000/svg">
<path d="M174.512 107V76.9219C174.512 73.1784 173.991 70.3789 172.949 68.5234C171.94 66.6354 170.329 65.6914 168.115 65.6914C165.186 65.6914 163.037 66.9447 161.67 69.4512C160.303 71.9577 159.619 75.8802 159.619 81.2188V107H140.479V76.9219C140.479 73.1784 139.99 70.3789 139.014 68.5234C138.037 66.6354 136.458 65.6914 134.277 65.6914C131.283 65.6914 129.102 67.026 127.734 69.6953C126.367 72.3646 125.684 76.7266 125.684 82.7812V107H106.592V51.6777H120.996L123.389 58.5137H124.512C125.977 55.9746 128.092 54.0378 130.859 52.7031C133.659 51.3685 136.833 50.7012 140.381 50.7012C148.356 50.7012 153.955 53.1263 157.178 57.9766H158.691C160.254 55.6979 162.419 53.9238 165.186 52.6543C167.985 51.3522 171.061 50.7012 174.414 50.7012C180.957 50.7012 185.791 52.3776 188.916 55.7305C192.041 59.0833 193.604 64.1777 193.604 71.0137V107H174.512ZM259.424 79.2168C259.424 88.2663 256.982 95.3301 252.1 100.408C247.249 105.454 240.446 107.977 231.689 107.977C223.291 107.977 216.602 105.389 211.621 100.213C206.673 95.0371 204.199 88.0384 204.199 79.2168C204.199 70.1999 206.624 63.2012 211.475 58.2207C216.357 53.2077 223.193 50.7012 231.982 50.7012C237.419 50.7012 242.22 51.8568 246.387 54.168C250.553 56.4792 253.76 59.7995 256.006 64.1289C258.285 68.4258 259.424 73.4551 259.424 79.2168ZM223.584 79.2168C223.584 83.9694 224.219 87.599 225.488 90.1055C226.758 92.5794 228.89 93.8164 231.885 93.8164C234.847 93.8164 236.93 92.5794 238.135 90.1055C239.372 87.599 239.99 83.9694 239.99 79.2168C239.99 74.4967 239.372 70.9323 238.135 68.5234C236.898 66.1146 234.782 64.9102 231.787 64.9102C228.857 64.9102 226.758 66.1146 225.488 68.5234C224.219 70.8997 223.584 74.4642 223.584 79.2168ZM297.461 92.8887C300.033 92.8887 303.109 92.2539 306.689 90.9844V104.9C304.118 106.007 301.66 106.788 299.316 107.244C297.005 107.732 294.287 107.977 291.162 107.977C284.749 107.977 280.127 106.414 277.295 103.289C274.463 100.132 273.047 95.2975 273.047 88.7871V65.9844H266.357V58.2207L274.854 52.2148L279.785 40.5938H292.285V51.6777H305.859V65.9844H292.285V87.5176C292.285 91.0983 294.01 92.8887 297.461 92.8887ZM369.189 79.2168C369.189 88.2663 366.748 95.3301 361.865 100.408C357.015 105.454 350.212 107.977 341.455 107.977C333.057 107.977 326.367 105.389 321.387 100.213C316.439 95.0371 313.965 88.0384 313.965 79.2168C313.965 70.1999 316.39 63.2012 321.24 58.2207C326.123 53.2077 332.959 50.7012 341.748 50.7012C347.184 50.7012 351.986 51.8568 356.152 54.168C360.319 56.4792 363.525 59.7995 365.771 64.1289C368.05 68.4258 369.189 73.4551 369.189 79.2168ZM333.35 79.2168C333.35 83.9694 333.984 87.599 335.254 90.1055C336.523 92.5794 338.656 93.8164 341.65 93.8164C344.613 93.8164 346.696 92.5794 347.9 90.1055C349.137 87.599 349.756 83.9694 349.756 79.2168C349.756 74.4967 349.137 70.9323 347.9 68.5234C346.663 66.1146 344.548 64.9102 341.553 64.9102C338.623 64.9102 336.523 66.1146 335.254 68.5234C333.984 70.8997 333.35 74.4642 333.35 79.2168ZM413.525 50.7012C415.186 50.7012 416.764 50.8314 418.262 51.0918L419.336 51.2871L417.627 69.3047C416.064 68.9141 413.9 68.7188 411.133 68.7188C406.966 68.7188 403.939 69.679 402.051 71.5996C400.163 73.4876 399.219 76.222 399.219 79.8027V107H380.127V51.6777H394.336L397.314 60.5156H398.242C399.837 57.5859 402.051 55.2259 404.883 53.4355C407.747 51.6126 410.628 50.7012 413.525 50.7012ZM469.824 90.0078C469.824 95.9323 467.806 100.408 463.77 103.436C459.733 106.463 453.939 107.977 446.387 107.977C442.285 107.977 438.721 107.749 435.693 107.293C432.666 106.87 429.574 106.072 426.416 104.9V89.6172C429.378 90.9193 432.617 91.9935 436.133 92.8398C439.681 93.6862 442.839 94.1094 445.605 94.1094C449.74 94.1094 451.807 93.1654 451.807 91.2773C451.807 90.3008 451.221 89.4382 450.049 88.6895C448.91 87.9082 445.557 86.4108 439.99 84.1973C434.912 82.1139 431.364 79.7539 429.346 77.1172C427.327 74.4479 426.318 71.0788 426.318 67.0098C426.318 61.8665 428.304 57.8626 432.275 54.998C436.247 52.1335 441.862 50.7012 449.121 50.7012C452.767 50.7012 456.185 51.1081 459.375 51.9219C462.598 52.7031 465.934 53.8587 469.385 55.3887L464.209 67.6934C461.67 66.554 458.984 65.5938 456.152 64.8125C453.32 63.9987 451.009 63.5918 449.219 63.5918C446.094 63.5918 444.531 64.3568 444.531 65.8867C444.531 66.8307 445.068 67.6445 446.143 68.3281C447.249 68.9792 450.407 70.3301 455.615 72.3809C459.489 73.9759 462.37 75.5384 464.258 77.0684C466.178 78.5983 467.578 80.4049 468.457 82.4883C469.368 84.5391 469.824 87.0456 469.824 90.0078Z" fill="#6A468D"/>
<circle cx="50" cy="62" r="50" fill="#6A468D"/>
<path d="M25.3203 73.3906C21.6354 73.3906 18.7708 72.4141 16.7266 70.4609C14.6953 68.4948 13.6797 65.7018 13.6797 62.082C13.6797 58.3451 14.6237 55.4805 16.5117 53.4883C18.3997 51.4831 21.0951 50.4805 24.5977 50.4805C27.931 50.4805 30.5026 51.3529 32.3125 53.0977C34.1354 54.8294 35.0469 57.3294 35.0469 60.5977V63.9961H21.3945C21.4466 65.2331 21.8958 66.2031 22.7422 66.9062C23.6016 67.6094 24.7669 67.9609 26.2383 67.9609C27.5794 67.9609 28.8099 67.8372 29.9297 67.5898C31.0625 67.3294 32.2865 66.8932 33.6016 66.2812V71.7695C32.4036 72.3815 31.1667 72.8047 29.8906 73.0391C28.6146 73.2734 27.0911 73.3906 25.3203 73.3906ZM24.8711 55.6758C23.9727 55.6758 23.2174 55.9622 22.6055 56.5352C22.0065 57.0951 21.6549 57.9805 21.5508 59.1914H28.1133C28.0872 58.1237 27.7812 57.2708 27.1953 56.6328C26.6224 55.9948 25.8477 55.6758 24.8711 55.6758ZM44.0508 61.7109L37.293 50.8711H45.9648L49.3242 57.082L52.7617 50.8711H61.4531L54.5195 61.7109L61.7266 73H53.0547L49.3242 66.2812L45.6133 73H36.9219L44.0508 61.7109ZM71.4336 73.3906C69.8581 73.3906 68.4779 72.9414 67.293 72.043C66.1211 71.1445 65.2096 69.8229 64.5586 68.0781C63.9206 66.3333 63.6016 64.2956 63.6016 61.9648C63.6016 58.3711 64.3242 55.5586 65.7695 53.5273C67.2148 51.4961 69.2005 50.4805 71.7266 50.4805C72.9635 50.4805 74.0443 50.7279 74.9688 51.2227C75.9062 51.7174 76.7591 52.5508 77.5273 53.7227H77.6836C77.4362 51.9909 77.3125 50.2591 77.3125 48.5273V42.6094H85.0078V73H79.2461L77.6055 70.207H77.3125C75.9974 72.3294 74.0378 73.3906 71.4336 73.3906ZM74.5586 67.3555C75.7826 67.3555 76.6419 66.9714 77.1367 66.2031C77.6445 65.4349 77.918 64.25 77.957 62.6484V62.043C77.957 60.0898 77.6771 58.7031 77.1172 57.8828C76.5573 57.0495 75.6784 56.6328 74.4805 56.6328C73.4779 56.6328 72.6966 57.1081 72.1367 58.0586C71.5898 58.9961 71.3164 60.3372 71.3164 62.082C71.3164 63.8008 71.5964 65.1094 72.1562 66.0078C72.7161 66.9062 73.5169 67.3555 74.5586 67.3555Z" fill="black"/>
</svg>
